# Blender v2.93.4 OBJ File: ''
# www.blender.org
mtllib GemV3.mtl
o Gem
v 0.382683 -0.400000 -0.382683
v 0.000000 -0.800000 -0.000000
v 0.000000 -0.400000 -0.541196
v 0.382683 0.000000 -0.923880
v 0.923880 0.000000 -0.382683
v 0.612293 0.175000 -0.612293
v 0.000000 0.175000 -0.865914
v 0.229610 0.350000 -0.554328
v 0.554328 0.350000 -0.229610
v 0.541196 -0.400000 -0.000000
v 0.923880 -0.000000 0.382683
v 0.865914 0.175000 0.000000
v 0.554328 0.350000 0.229610
v 0.382683 -0.400000 0.382683
v 0.382683 -0.000000 0.923880
v 0.612293 0.175000 0.612293
v 0.229610 0.350000 0.554328
v 0.000000 -0.400000 0.541196
v -0.382683 -0.000000 0.923880
v 0.000000 0.175000 0.865914
v -0.229610 0.350000 0.554328
v -0.382683 -0.400000 0.382683
v -0.923880 -0.000000 0.382683
v -0.612293 0.175000 0.612293
v -0.554328 0.350000 0.229610
v -0.541196 -0.400000 -0.000000
v -0.923880 0.000000 -0.382683
v -0.865914 0.175000 0.000000
v -0.554328 0.350000 -0.229610
v -0.382683 -0.400000 -0.382683
v -0.382683 0.000000 -0.923880
v -0.612293 0.175000 -0.612293
v -0.229610 0.350000 -0.554328
v 0.000000 0.350000 0.000000
vn 0.2391 -0.7809 -0.5771
vn 0.5109 -0.6913 -0.5109
vn 0.6712 0.3144 -0.6712
vn 0.2520 0.7526 -0.6084
vn 0.3463 0.8719 -0.3463
vn 0.5771 -0.7809 -0.2391
vn 0.7226 -0.6913 -0.0000
vn 0.9493 0.3144 0.0000
vn 0.6084 0.7526 -0.2520
vn 0.4897 0.8719 0.0000
vn 0.5771 -0.7809 0.2391
vn 0.5109 -0.6913 0.5109
vn 0.6712 0.3144 0.6712
vn 0.6084 0.7526 0.2520
vn 0.3463 0.8719 0.3463
vn 0.2391 -0.7809 0.5771
vn 0.0000 -0.6913 0.7226
vn 0.0000 0.3144 0.9493
vn 0.2520 0.7526 0.6084
vn 0.0000 0.8719 0.4897
vn -0.2391 -0.7809 0.5771
vn -0.5109 -0.6913 0.5109
vn -0.6712 0.3144 0.6712
vn -0.2520 0.7526 0.6084
vn -0.3463 0.8719 0.3463
vn -0.5771 -0.7809 0.2391
vn -0.7226 -0.6913 -0.0000
vn -0.9493 0.3144 0.0000
vn -0.6084 0.7526 0.2520
vn -0.4897 0.8719 0.0000
vn -0.5771 -0.7809 -0.2391
vn -0.5109 -0.6913 -0.5109
vn -0.6712 0.3144 -0.6712
vn -0.6084 0.7526 -0.2520
vn -0.3463 0.8719 -0.3463
vn -0.2391 -0.7809 -0.5771
vn 0.0000 -0.6913 -0.7226
vn 0.0000 0.3144 -0.9493
vn -0.2520 0.7526 -0.6084
vn 0.0000 0.8719 -0.4897
vn 0.0000 1.0000 0.0000
usemtl None
s 1
f 1//1 3//1 4//1
f 1//2 4//2 5//2
f 5//3 4//3 6//3
f 4//4 8//4 6//4
f 6//5 8//5 9//5
f 10//6 1//6 5//6
f 10//7 5//7 11//7
f 11//8 5//8 12//8
f 5//9 9//9 12//9
f 12//10 9//10 13//10
f 14//11 10//11 11//11
f 14//12 11//12 15//12
f 15//13 11//13 16//13
f 11//14 13//14 16//14
f 16//15 13//15 17//15
f 18//16 14//16 15//16
f 18//17 15//17 19//17
f 19//18 15//18 20//18
f 15//19 17//19 20//19
f 20//20 17//20 21//20
f 22//21 18//21 19//21
f 22//22 19//22 23//22
f 23//23 19//23 24//23
f 19//24 21//24 24//24
f 24//25 21//25 25//25
f 26//26 22//26 23//26
f 26//27 23//27 27//27
f 27//28 23//28 28//28
f 23//29 25//29 28//29
f 28//30 25//30 29//30
f 30//31 26//31 27//31
f 30//32 27//32 31//32
f 31//33 27//33 32//33
f 27//34 29//34 32//34
f 32//35 29//35 33//35
f 3//36 30//36 31//36
f 3//37 31//37 4//37
f 4//38 31//38 7//38
f 31//39 33//39 7//39
f 7//40 33//40 8//40
f 8//41 33//41 34//41
f 34//41 9//41 8//41
f 34//41 13//41 9//41
f 34//41 17//41 13//41
f 34//41 21//41 17//41
f 34//41 25//41 21//41
f 34//41 29//41 25//41
f 34//41 33//41 29//41
f 1//1 2//1 3//1
f 4//4 7//4 8//4
f 10//6 2//6 1//6
f 5//9 6//9 9//9
f 14//11 2//11 10//11
f 11//14 12//14 13//14
f 18//16 2//16 14//16
f 15//19 16//19 17//19
f 22//21 2//21 18//21
f 19//24 20//24 21//24
f 26//26 2//26 22//26
f 23//29 24//29 25//29
f 30//31 2//31 26//31
f 27//34 28//34 29//34
f 3//36 2//36 30//36
f 31//39 32//39 33//39
