# Blender v2.93.5 OBJ File: 'puck.blend'
# www.blender.org
mtllib puck.mtl
o Circle
v 0.004928 0.001847 0.024777
v 0.004442 -0.001847 0.022332
v 0.009668 0.001847 0.023340
v 0.008713 -0.001847 0.021036
v 0.014035 0.001847 0.021005
v 0.012650 -0.001847 0.018932
v 0.017863 0.001847 0.017863
v 0.016100 -0.001847 0.016100
v 0.021005 0.001847 0.014035
v 0.018932 -0.001847 0.012650
v 0.023340 0.001847 0.009668
v 0.021036 -0.001847 0.008713
v 0.024777 0.001847 0.004928
v 0.022332 -0.001847 0.004442
v 0.025263 0.001847 0.000000
v 0.022769 -0.001847 0.000000
v 0.024777 0.001847 -0.004928
v 0.022332 -0.001847 -0.004442
v 0.023340 0.001847 -0.009668
v 0.021036 -0.001847 -0.008713
v 0.021005 0.001847 -0.014035
v 0.018932 -0.001847 -0.012650
v 0.017863 0.001847 -0.017863
v 0.016100 -0.001847 -0.016100
v 0.014035 0.001847 -0.021005
v 0.012650 -0.001847 -0.018932
v 0.009668 0.001847 -0.023340
v 0.008713 -0.001847 -0.021036
v 0.004928 0.001847 -0.024777
v 0.004442 -0.001847 -0.022332
v 0.000000 0.001847 -0.025263
v 0.000000 -0.001847 -0.022769
v -0.004928 0.001847 -0.024777
v -0.004442 -0.001847 -0.022332
v -0.009668 0.001847 -0.023340
v -0.008713 -0.001847 -0.021036
v -0.014035 0.001847 -0.021005
v -0.012650 -0.001847 -0.018932
v -0.017863 0.001847 -0.017863
v -0.016100 -0.001847 -0.016100
v -0.021005 0.001847 -0.014035
v -0.018932 -0.001847 -0.012650
v -0.023340 0.001847 -0.009668
v -0.021036 -0.001847 -0.008713
v -0.024777 0.001847 -0.004928
v -0.022332 -0.001847 -0.004442
v -0.025263 0.001847 -0.000000
v -0.022769 -0.001847 -0.000000
v -0.024777 0.001847 0.004928
v -0.022332 -0.001847 0.004442
v -0.023340 0.001847 0.009668
v -0.021036 -0.001847 0.008713
v -0.021005 0.001847 0.014035
v -0.018932 -0.001847 0.012650
v -0.017863 0.001847 0.017863
v -0.016100 -0.001847 0.016100
v -0.014035 0.001847 0.021005
v -0.012650 -0.001847 0.018932
v -0.009668 0.001847 0.023340
v -0.008713 -0.001847 0.021036
v -0.004928 0.001847 0.024777
v -0.004442 -0.001847 0.022332
v -0.000000 0.001847 0.025263
v 0.000000 -0.001847 0.022769
v 0.021005 -0.001847 0.014035
v 0.017863 -0.001847 0.017863
v 0.024777 -0.001847 0.004928
v 0.023340 -0.001847 0.009668
v -0.004928 -0.001847 -0.024777
v 0.000000 -0.001847 -0.025263
v -0.009668 -0.001847 -0.023340
v -0.014035 -0.001847 -0.021005
v -0.017863 -0.001847 -0.017863
v -0.023340 -0.001847 -0.009668
v -0.021005 -0.001847 -0.014035
v -0.024777 -0.001847 0.004928
v -0.025263 -0.001847 -0.000000
v 0.009668 -0.001847 -0.023340
v 0.014035 -0.001847 -0.021005
v 0.014035 -0.001847 0.021005
v 0.009668 -0.001847 0.023340
v -0.021005 -0.001847 0.014035
v -0.023340 -0.001847 0.009668
v -0.004928 -0.001847 0.024777
v -0.009668 -0.001847 0.023340
v -0.017863 -0.001847 0.017863
v -0.000000 -0.001847 0.025263
v -0.014035 -0.001847 0.021005
v -0.024777 -0.001847 -0.004928
v 0.004928 -0.001847 -0.024777
v 0.004928 -0.001847 0.024777
v 0.024777 -0.001847 -0.004928
v 0.025263 -0.001847 0.000000
v 0.017863 -0.001847 -0.017863
v 0.021005 -0.001847 -0.014035
v 0.023340 -0.001847 -0.009668
v 0.019404 -0.000287 0.012651
v 0.016572 -0.000287 0.016101
v 0.022804 -0.000287 0.004443
v 0.021508 -0.000287 0.008714
v -0.003970 -0.000287 -0.022330
v 0.000472 -0.000287 -0.022768
v -0.008241 -0.000287 -0.021035
v -0.012177 -0.000287 -0.018931
v -0.015628 -0.000287 -0.016099
v -0.020564 -0.000287 -0.008712
v -0.018459 -0.000287 -0.012649
v -0.021859 -0.000287 0.004443
v -0.022297 -0.000287 0.000001
v 0.009186 -0.000287 -0.021035
v 0.013122 -0.000287 -0.018931
v 0.013122 -0.000287 0.018933
v 0.009186 -0.000287 0.021037
v -0.018459 -0.000287 0.012651
v -0.020564 -0.000287 0.008714
v -0.003970 -0.000287 0.022333
v -0.008241 -0.000287 0.021037
v -0.015628 -0.000287 0.016101
v 0.000472 -0.000287 0.022770
v -0.012177 -0.000287 0.018933
v -0.021859 -0.000287 -0.004441
v 0.004914 -0.000287 -0.022330
v 0.004914 -0.000287 0.022333
v 0.022804 -0.000287 -0.004441
v 0.023241 -0.000287 0.000001
v 0.016572 -0.000287 -0.016099
v 0.019404 -0.000287 -0.012649
v 0.021508 -0.000287 -0.008712
vt 0.631481 0.769377
vt 0.668175 0.769533
vt 0.667168 0.728558
vt 0.274622 0.500000
vt 0.225378 0.000000
vt 0.000000 0.274622
vt 0.583993 0.571939
vt 0.547269 0.571939
vt 0.547131 0.620241
vt 0.630474 0.537043
vt 0.667168 0.537197
vt 0.668175 0.491720
vt 0.629854 0.585331
vt 0.666548 0.585485
vt 0.589314 0.491604
vt 0.625648 0.491604
vt 0.629645 0.450651
vt 0.586560 0.537106
vt 0.622894 0.537107
vt 0.585156 0.585407
vt 0.621490 0.585409
vt 0.629645 0.634577
vt 0.666338 0.634731
vt 0.630474 0.728403
vt 0.666548 0.683041
vt 0.589314 0.728441
vt 0.625648 0.728443
vt 0.622894 0.682951
vt 0.757284 0.528573
vt 0.757528 0.487561
vt 0.742016 0.492237
vt 0.584264 0.526438
vt 0.547539 0.526436
vt 0.593311 0.769381
vt 0.629645 0.769382
vt 0.631481 0.491566
vt 0.669530 0.450804
vt 0.583855 0.620243
vt 0.547131 0.669487
vt 0.586560 0.682951
vt 0.621490 0.634655
vt 0.629854 0.682886
vt 0.585156 0.634653
vt 0.584656 0.485481
vt 0.547932 0.485481
vt 0.585156 0.450649
vt 0.548432 0.450649
vt 0.542545 0.769869
vt 0.506215 0.769348
vt 0.510800 0.804249
vt 0.632836 0.804237
vt 0.669530 0.804392
vt 0.539137 0.537495
vt 0.502807 0.536974
vt 0.500709 0.585245
vt 0.583855 0.669487
vt 0.547269 0.717785
vt 0.542545 0.492048
vt 0.506215 0.491526
vt 0.539137 0.728861
vt 0.502807 0.728340
vt 0.547131 0.451170
vt 0.510800 0.450649
vt 0.537039 0.683325
vt 0.500709 0.682804
vt 0.584656 0.804213
vt 0.547932 0.804213
vt 0.548432 0.839025
vt 0.584264 0.763275
vt 0.547539 0.763275
vt 0.583993 0.717785
vt 0.537039 0.585766
vt 0.500000 0.634485
vt 0.536330 0.635008
vt 0.475325 0.772192
vt 0.466665 0.815725
vt 0.490393 0.822922
vt 0.466665 0.684275
vt 0.475325 0.727808
vt 0.500000 0.725378
vt 0.106363 0.574980
vt 0.143269 0.550320
vt 0.131580 0.528452
vt 0.090635 0.555813
vt 0.055813 0.590633
vt 0.050320 0.643269
vt 0.074980 0.606363
vt 0.028454 0.631580
vt 0.009607 0.677078
vt 0.024675 0.772192
vt 0.024675 0.727808
vt 0.000000 0.725378
vt 0.074980 0.893637
vt 0.050320 0.856731
vt 0.028452 0.868420
vt 0.272192 0.524675
vt 0.274624 0.500000
vt 0.225378 0.500000
vt 0.449680 0.856731
vt 0.425020 0.893637
vt 0.444187 0.909367
vt 0.143269 0.949680
vt 0.106363 0.925020
vt 0.090633 0.944187
vt 0.315725 0.966665
vt 0.272192 0.975325
vt 0.274622 1.000000
vt 0.131580 0.971546
vt 0.177078 0.990393
vt 0.356731 0.949680
vt 0.322922 0.990393
vt 0.055813 0.909367
vt 0.227808 0.975325
vt 0.184275 0.966665
vt 0.033335 0.815725
vt 0.009607 0.822922
vt 0.184275 0.533335
vt 0.227808 0.524675
vt 0.177078 0.509607
vt 0.393637 0.925020
vt 0.368420 0.971548
vt 0.471546 0.868420
vt 0.225376 1.000000
vt 0.449680 0.643269
vt 0.471548 0.631580
vt 0.444187 0.590633
vt 0.315725 0.533335
vt 0.356731 0.550320
vt 0.368420 0.528454
vt 0.033335 0.684275
vt 0.000000 0.774622
vt 0.500000 0.774622
vt 0.409365 0.944187
vt 0.490393 0.677078
vt 0.322922 0.509607
vt 0.425020 0.606363
vt 0.409367 0.555813
vt 0.393637 0.574980
vt 0.508659 0.291050
vt 0.941990 0.159599
vt 0.659599 0.008659
vt 0.686819 0.560375
vt 0.689301 0.519373
vt 0.673276 0.518923
vt 0.757284 0.660023
vt 0.757160 0.616493
vt 0.741648 0.621169
vt 0.757882 0.450649
vt 0.742370 0.455325
vt 0.692903 0.482475
vt 0.676879 0.482025
vt 0.757160 0.572108
vt 0.741648 0.576784
vt 0.707223 0.451330
vt 0.703090 0.482786
vt 0.719106 0.482105
vt 0.723987 0.700988
vt 0.739519 0.705552
vt 0.738960 0.664528
vt 0.700019 0.519745
vt 0.698127 0.560789
vt 0.714143 0.560108
vt 0.692903 0.769747
vt 0.676879 0.769297
vt 0.681465 0.800692
vt 0.700019 0.692225
vt 0.716034 0.691544
vt 0.714143 0.648037
vt 0.723428 0.572038
vt 0.738960 0.576603
vt 0.739519 0.533080
vt 0.757528 0.701024
vt 0.741772 0.664699
vt 0.685554 0.603905
vt 0.670795 0.559925
vt 0.726116 0.769337
vt 0.741647 0.773902
vt 0.740426 0.742483
vt 0.697489 0.451099
vt 0.681465 0.450649
vt 0.707223 0.770029
vt 0.723239 0.769348
vt 0.719106 0.732506
vt 0.716034 0.519066
vt 0.723239 0.616423
vt 0.738771 0.620987
vt 0.697489 0.604336
vt 0.713505 0.603657
vt 0.724894 0.487528
vt 0.740426 0.492092
vt 0.741647 0.455214
vt 0.686819 0.691824
vt 0.670795 0.691374
vt 0.673276 0.732386
vt 0.723428 0.659964
vt 0.689301 0.732836
vt 0.724894 0.737919
vt 0.703090 0.733187
vt 0.685554 0.648291
vt 0.669530 0.647840
vt 0.669530 0.603455
vt 0.723987 0.528515
vt 0.741772 0.533249
vt 0.757882 0.737922
vt 0.742016 0.705700
vt 0.698127 0.648718
vt 0.500000 0.225378
vt 0.490393 0.322922
vt 0.500000 0.274624
vt 0.444187 0.409367
vt 0.471546 0.368420
vt 0.368420 0.471548
vt 0.409365 0.444187
vt 0.322922 0.490393
vt 0.177078 0.490393
vt 0.225376 0.500000
vt 0.090633 0.444187
vt 0.131580 0.471546
vt 0.028452 0.368420
vt 0.055813 0.409365
vt 0.009607 0.322922
vt 0.009607 0.177078
vt 0.000000 0.225376
vt 0.028454 0.131580
vt 0.055813 0.090633
vt 0.090635 0.055813
vt 0.131580 0.028452
vt 0.177078 0.009607
vt 0.322922 0.009607
vt 0.274624 0.000000
vt 0.409367 0.055813
vt 0.368420 0.028454
vt 0.444187 0.090635
vt 0.471548 0.131580
vt 0.490393 0.177078
vt 0.593311 0.450649
vt 0.632836 0.450649
vt 0.547131 0.804770
vt 0.585156 0.839025
vt 0.500000 0.203133
vt 0.500000 0.247517
vt 0.508659 0.159599
vt 0.525644 0.118593
vt 0.581688 0.050304
vt 0.550304 0.081688
vt 0.618593 0.025644
vt 0.747517 0.000000
vt 0.703133 0.000000
vt 0.791050 0.008659
vt 0.832056 0.025644
vt 0.868961 0.050304
vt 0.900345 0.081688
vt 0.925005 0.118593
vt 0.950649 0.247517
vt 0.950649 0.203133
vt 0.925005 0.332056
vt 0.941990 0.291050
vt 0.791050 0.441990
vt 0.900345 0.368961
vt 0.868961 0.400345
vt 0.832056 0.425005
vt 0.618593 0.425005
vt 0.747517 0.450649
vt 0.703133 0.450649
vt 0.659599 0.441990
vt 0.550304 0.368961
vt 0.581688 0.400345
vt 0.525644 0.332056
vt 0.723239 0.450649
vt 0.697489 0.801142
vt 0.726116 0.450649
vt 0.742370 0.742597
vn 0.2903 0.0000 0.9569
vn 0.0000 -1.0000 0.0000
vn -0.0980 0.0000 -0.9952
vn -0.6344 0.0000 0.7730
vn -0.4714 0.0000 0.8819
vn -0.7730 0.0000 -0.6344
vn -0.8819 0.0000 -0.4714
vn -0.9569 0.0000 -0.2903
vn -0.2903 0.0000 0.9569
vn 0.0980 0.0000 0.9952
vn -0.9569 0.0000 0.2903
vn -0.2892 0.0883 -0.9532
vn -0.2903 0.0000 -0.9569
vn -0.8819 0.0000 0.4714
vn -0.7730 0.0000 0.6344
vn 0.0980 0.0000 -0.9952
vn -0.9952 0.0000 0.0980
vn -0.0980 0.0000 0.9952
vn -0.9952 0.0000 -0.0980
vn -0.4714 0.0000 -0.8819
vn -0.6344 0.0000 -0.7730
vn 0.6344 0.0000 0.7730
vn 0.4714 0.0000 0.8819
vn 0.9952 0.0000 -0.0980
vn 0.2903 0.0000 -0.9569
vn 0.9569 0.0000 -0.2903
vn 0.7730 0.0000 0.6344
vn 0.8819 0.0000 -0.4714
vn 0.8819 0.0000 0.4714
vn 0.7730 0.0000 -0.6344
vn 0.6344 0.0000 -0.7730
vn 0.4714 0.0000 -0.8819
vn 0.9952 0.0000 0.0980
vn 0.9569 0.0000 0.2903
vn 0.0000 1.0000 -0.0000
vn 0.9192 -0.2782 -0.2788
vn 0.2892 -0.0869 -0.9533
vn -0.4666 0.1420 -0.8730
vn 0.8521 -0.2578 -0.4555
vn 0.0980 -0.0289 -0.9948
vn -0.6229 0.1892 -0.7590
vn 0.0980 -0.0304 0.9947
vn -0.8520 0.2584 -0.4554
vn 0.6229 -0.1892 0.7590
vn -0.9529 0.2885 0.0938
vn -0.4667 0.1407 0.8731
vn 0.4667 -0.1407 -0.8731
vn 0.9529 -0.2885 -0.0938
vn 0.4666 -0.1420 0.8730
vn 0.7527 -0.2275 -0.6178
vn -0.8521 0.2578 0.4555
vn -0.7526 0.2284 -0.6176
vn -0.2892 0.0869 0.9533
vn -0.9191 0.2786 -0.2788
vn -0.7527 0.2275 0.6178
vn 0.8520 -0.2584 0.4554
vn -0.0980 0.0289 0.9948
vn 0.7526 -0.2284 0.6176
vn 0.2892 -0.0883 0.9532
vn -0.9192 0.2782 0.2788
vn 0.9191 -0.2786 0.2788
vn 0.9528 -0.2887 0.0938
vn -0.6231 0.1882 0.7592
vn -0.0980 0.0304 -0.9947
vn 0.6231 -0.1882 -0.7592
vn -0.9528 0.2887 -0.0938
usemtl Material.001
s off
f 35/1/1 71/2/1 69/3/1
f 13/4/2 45/5/2 29/6/2
f 1/7/3 91/8/3 87/9/3
f 25/10/4 79/11/4 94/12/4
f 27/13/5 78/14/5 79/11/5
f 9/15/6 65/16/6 66/17/6
f 11/18/7 68/19/7 65/16/7
f 13/20/8 67/21/8 68/19/8
f 29/22/9 90/23/9 78/14/9
f 33/24/10 69/3/10 70/25/10
f 19/26/11 96/27/11 92/28/11
f 34/29/12 36/30/12 103/31/12
f 3/32/13 81/33/13 91/8/13
f 21/34/14 95/35/14 96/27/14
f 23/36/15 94/12/15 95/37/15
f 63/38/16 87/9/16 84/39/16
f 17/40/17 92/28/17 93/41/17
f 31/42/18 70/25/18 90/23/18
f 15/43/19 93/41/19 67/21/19
f 5/44/20 80/45/20 81/33/20
f 7/46/21 66/47/21 80/45/21
f 39/48/22 73/49/22 72/50/22
f 37/51/23 72/52/23 71/2/23
f 49/53/24 76/54/24 77/55/24
f 61/56/25 84/39/25 85/57/25
f 51/58/26 83/59/26 76/54/26
f 41/60/27 75/61/27 73/49/27
f 53/62/28 82/63/28 83/59/28
f 43/64/29 74/65/29 75/61/29
f 55/66/30 86/67/30 82/68/30
f 57/69/31 88/70/31 86/67/31
f 59/71/32 85/57/32 88/70/32
f 47/72/33 77/55/33 89/73/33
f 45/74/34 89/73/34 74/65/34
f 10/75/35 8/76/35 66/77/35
f 14/78/35 12/79/35 68/80/35
f 34/81/35 32/82/35 70/83/35
f 34/81/35 69/84/35 71/85/35
f 38/86/35 36/87/35 71/85/35
f 38/86/35 72/88/35 73/89/35
f 44/90/35 42/91/35 75/92/35
f 50/93/35 48/94/35 77/95/35
f 26/96/35 79/97/35 78/98/35
f 6/99/35 4/100/35 81/101/35
f 54/102/35 52/103/35 83/104/35
f 62/105/35 60/106/35 85/107/35
f 54/102/35 82/108/35 86/109/35
f 64/110/35 62/105/35 84/111/35
f 50/93/35 76/112/35 83/104/35
f 58/113/35 56/114/35 86/109/35
f 48/94/35 46/115/35 89/116/35
f 30/117/35 28/118/35 78/98/35
f 30/117/35 90/119/35 70/83/35
f 2/120/35 64/110/35 87/121/35
f 8/76/35 6/99/35 80/122/35
f 58/113/35 88/123/35 85/107/35
f 16/124/35 93/125/35 92/126/35
f 24/127/35 22/128/35 95/129/35
f 42/91/35 40/130/35 73/89/35
f 46/115/35 44/90/35 74/131/35
f 10/75/35 65/132/35 68/80/35
f 2/120/35 91/133/35 81/101/35
f 16/124/35 14/78/35 67/134/35
f 24/127/35 94/135/35 79/97/35
f 18/136/35 92/126/35 96/137/35
f 20/138/35 96/137/35 95/129/35
f 113/139/35 103/140/35 115/141/35
f 18/142/36 20/143/36 128/144/36
f 28/145/37 30/146/37 122/147/37
f 36/30/38 38/148/38 104/149/38
f 20/143/39 22/150/39 127/151/39
f 30/146/40 32/152/40 102/153/40
f 38/154/41 40/155/41 105/156/41
f 2/157/42 123/158/42 119/159/42
f 42/160/43 44/161/43 106/162/43
f 8/163/44 98/164/44 112/165/44
f 50/166/45 108/167/45 109/168/45
f 60/169/46 117/170/46 120/171/46
f 26/172/47 28/145/47 110/173/47
f 16/174/48 18/142/48 124/175/48
f 6/176/49 112/177/49 113/178/49
f 22/150/50 24/179/50 126/180/50
f 54/181/51 114/182/51 115/183/51
f 40/155/52 42/160/52 107/184/52
f 62/185/53 116/186/53 117/170/53
f 44/161/54 46/187/54 121/188/54
f 56/189/55 118/190/55 114/191/55
f 12/192/56 100/193/56 97/194/56
f 64/195/57 119/159/57 116/186/57
f 10/196/58 97/194/58 98/164/58
f 4/197/59 113/178/59 123/158/59
f 52/198/60 115/183/60 108/167/60
f 14/199/61 99/200/61 100/193/61
f 16/174/62 125/201/62 99/200/62
f 58/202/63 120/171/63 118/190/63
f 32/152/64 34/29/64 101/203/64
f 24/204/65 26/172/65 111/205/65
f 46/187/66 48/206/66 109/168/66
f 35/1/1 69/3/1 33/24/1
f 61/207/2 1/208/2 63/209/2
f 1/208/2 5/210/2 3/211/2
f 5/210/2 9/212/2 7/213/2
f 9/212/2 5/210/2 11/214/2
f 11/214/2 5/210/2 13/4/2
f 13/4/2 17/215/2 15/216/2
f 17/215/2 21/217/2 19/218/2
f 21/217/2 25/219/2 23/220/2
f 25/219/2 21/217/2 27/221/2
f 27/221/2 21/217/2 29/6/2
f 29/6/2 33/222/2 31/223/2
f 33/222/2 29/6/2 35/224/2
f 35/224/2 29/6/2 37/225/2
f 37/225/2 45/5/2 39/226/2
f 39/226/2 45/5/2 41/227/2
f 41/227/2 45/5/2 43/228/2
f 45/5/2 49/229/2 47/230/2
f 49/229/2 53/231/2 51/232/2
f 53/231/2 61/207/2 55/233/2
f 55/233/2 61/207/2 57/234/2
f 57/234/2 61/207/2 59/235/2
f 61/207/2 13/4/2 1/208/2
f 1/208/2 13/4/2 5/210/2
f 13/4/2 21/217/2 17/215/2
f 45/5/2 61/207/2 49/229/2
f 49/229/2 61/207/2 53/231/2
f 13/4/2 29/6/2 21/217/2
f 29/6/2 45/5/2 37/225/2
f 61/207/2 45/5/2 13/4/2
f 1/7/3 87/9/3 63/38/3
f 25/10/4 94/12/4 23/36/4
f 27/13/5 79/11/5 25/10/5
f 9/15/6 66/17/6 7/236/6
f 11/18/7 65/16/7 9/15/7
f 13/20/8 68/19/8 11/18/8
f 29/22/9 78/14/9 27/13/9
f 33/24/10 70/25/10 31/42/10
f 19/26/11 92/28/11 17/40/11
f 34/29/12 103/31/12 101/203/12
f 3/32/13 91/8/13 1/7/13
f 21/34/14 96/27/14 19/26/14
f 23/36/15 95/37/15 21/237/15
f 63/38/16 84/39/16 61/56/16
f 17/40/17 93/41/17 15/43/17
f 31/42/18 90/23/18 29/22/18
f 15/43/19 67/21/19 13/20/19
f 5/44/20 81/33/20 3/32/20
f 7/46/21 80/45/21 5/44/21
f 39/48/22 72/50/22 37/238/22
f 37/51/23 71/2/23 35/1/23
f 49/53/24 77/55/24 47/72/24
f 61/56/25 85/57/25 59/71/25
f 51/58/26 76/54/26 49/53/26
f 41/60/27 73/49/27 39/48/27
f 53/62/28 83/59/28 51/58/28
f 43/64/29 75/61/29 41/60/29
f 55/66/30 82/68/30 53/239/30
f 57/69/31 86/67/31 55/66/31
f 59/71/32 88/70/32 57/69/32
f 47/72/33 89/73/33 45/74/33
f 45/74/34 74/65/34 43/64/34
f 10/75/35 66/77/35 65/132/35
f 14/78/35 68/80/35 67/134/35
f 34/81/35 70/83/35 69/84/35
f 34/81/35 71/85/35 36/87/35
f 38/86/35 71/85/35 72/88/35
f 38/86/35 73/89/35 40/130/35
f 44/90/35 75/92/35 74/131/35
f 50/93/35 77/95/35 76/112/35
f 26/96/35 78/98/35 28/118/35
f 6/99/35 81/101/35 80/122/35
f 54/102/35 83/104/35 82/108/35
f 62/105/35 85/107/35 84/111/35
f 54/102/35 86/109/35 56/114/35
f 64/110/35 84/111/35 87/121/35
f 50/93/35 83/104/35 52/103/35
f 58/113/35 86/109/35 88/123/35
f 48/94/35 89/116/35 77/95/35
f 30/117/35 78/98/35 90/119/35
f 30/117/35 70/83/35 32/82/35
f 2/120/35 87/121/35 91/133/35
f 8/76/35 80/122/35 66/77/35
f 58/113/35 85/107/35 60/106/35
f 16/124/35 92/126/35 18/136/35
f 24/127/35 95/129/35 94/135/35
f 42/91/35 73/89/35 75/92/35
f 46/115/35 74/131/35 89/116/35
f 10/75/35 68/80/35 12/79/35
f 2/120/35 81/101/35 4/100/35
f 16/124/35 67/134/35 93/125/35
f 24/127/35 79/97/35 26/96/35
f 18/136/35 96/137/35 20/138/35
f 20/138/35 95/129/35 22/128/35
f 113/139/35 119/240/35 123/241/35
f 119/240/35 113/139/35 116/242/35
f 116/242/35 113/139/35 117/243/35
f 117/243/35 118/244/35 120/245/35
f 118/244/35 115/141/35 114/246/35
f 115/141/35 109/247/35 108/248/35
f 109/247/35 115/141/35 121/249/35
f 121/249/35 115/141/35 106/250/35
f 106/250/35 103/140/35 107/251/35
f 107/251/35 103/140/35 105/252/35
f 105/252/35 103/140/35 104/253/35
f 103/140/35 102/254/35 101/255/35
f 102/254/35 110/256/35 122/257/35
f 110/256/35 128/258/35 111/259/35
f 111/259/35 128/258/35 126/260/35
f 126/260/35 128/258/35 127/261/35
f 128/258/35 100/262/35 124/263/35
f 124/263/35 100/262/35 125/264/35
f 125/264/35 100/262/35 99/265/35
f 100/262/35 98/266/35 97/267/35
f 98/266/35 113/139/35 112/268/35
f 117/243/35 113/139/35 118/244/35
f 118/244/35 113/139/35 115/141/35
f 103/140/35 110/256/35 102/254/35
f 100/262/35 113/139/35 98/266/35
f 115/141/35 103/140/35 106/250/35
f 103/140/35 128/258/35 110/256/35
f 128/258/35 103/140/35 100/262/35
f 100/262/35 103/140/35 113/139/35
f 18/142/36 128/144/36 124/175/36
f 28/145/37 122/147/37 110/173/37
f 36/30/38 104/149/38 103/31/38
f 20/143/39 127/151/39 128/144/39
f 30/146/40 102/153/40 122/147/40
f 38/154/41 105/156/41 104/269/41
f 2/157/42 119/159/42 64/195/42
f 42/160/43 106/162/43 107/184/43
f 8/163/44 112/165/44 6/270/44
f 50/166/45 109/168/45 48/206/45
f 60/169/46 120/171/46 58/202/46
f 26/172/47 110/173/47 111/205/47
f 16/174/48 124/175/48 125/201/48
f 6/176/49 113/178/49 4/197/49
f 22/150/50 126/180/50 127/151/50
f 54/181/51 115/183/51 52/198/51
f 40/155/52 107/184/52 105/156/52
f 62/185/53 117/170/53 60/169/53
f 44/161/54 121/188/54 106/162/54
f 56/189/55 114/191/55 54/271/55
f 12/192/56 97/194/56 10/196/56
f 64/195/57 116/186/57 62/185/57
f 10/196/58 98/164/58 8/163/58
f 4/197/59 123/158/59 2/157/59
f 52/198/60 108/167/60 50/166/60
f 14/199/61 100/193/61 12/192/61
f 16/174/62 99/200/62 14/199/62
f 58/202/63 118/190/63 56/189/63
f 32/152/64 101/203/64 102/153/64
f 24/204/65 111/205/65 126/272/65
f 46/187/66 109/168/66 121/188/66
