# Blender v2.91.0 OBJ File: ''
# www.blender.org
mtllib ScoreBoard.mtl
o Plane
v -0.196613 0.000000 0.196613
v 0.196613 0.000000 0.196613
v -0.196613 0.000000 -0.196613
v 0.196613 0.000000 -0.196613
v -0.196613 0.015804 0.196613
v 0.196613 0.015804 0.196613
v -0.196613 0.015804 -0.196613
v 0.196613 0.015804 -0.196613
vt 1.003642 -0.006103
vt -0.001643 0.999182
vt 1.003642 0.999182
vt 0.999962 0.999804
vt 0.001032 0.000583
vt 0.000645 0.999416
vt 0.580379 0.000000
vt 0.560284 0.500000
vt 0.580379 0.500000
vt 0.520095 0.000000
vt 0.500000 0.500000
vt 0.520095 0.500000
vt 0.540189 0.000000
vt 0.520095 0.500000
vt 0.540189 0.500000
vt 0.560284 0.000000
vt 0.540189 0.500000
vt 0.560284 0.500000
vt -0.001643 -0.006103
vt 0.999478 -0.000192
vt 0.560284 0.000000
vt 0.500000 0.000000
vt 0.520095 0.000000
vt 0.540189 0.000000
vn 0.0000 -1.0000 0.0000
vn 0.0000 1.0000 0.0000
vn 1.0000 0.0000 0.0000
vn -1.0000 0.0000 0.0000
vn 0.0000 0.0000 -1.0000
vn 0.0000 0.0000 1.0000
usemtl Material.001
s off
f 3/1/1 2/2/1 1/3/1
f 6/4/2 7/5/2 5/6/2
f 4/7/3 6/8/3 2/9/3
f 1/10/4 7/11/4 3/12/4
f 3/13/5 8/14/5 4/15/5
f 2/16/6 5/17/6 1/18/6
f 3/1/1 4/19/1 2/2/1
f 6/4/2 8/20/2 7/5/2
f 4/7/3 8/21/3 6/8/3
f 1/10/4 5/22/4 7/11/4
f 3/13/5 7/23/5 8/14/5
f 2/16/6 6/24/6 5/17/6
