# Blender v2.93.4 OBJ File: ''
# www.blender.org
mtllib SmallSpeakerPlatformV4.mtl
o Cube_Cube.003
v -8.000000 2.000000 0.000000
v -8.000000 0.000001 -6.000000
v -8.000000 0.000000 0.000000
v -8.000000 2.000001 -6.000000
v 0.000000 0.000001 -6.000000
v 0.000000 2.000001 -6.000000
v 0.000000 0.000000 0.000000
v 0.000000 2.000000 0.000000
vt 0.656092 0.653209
vt 0.342206 0.339549
vt 0.656092 0.339549
vt 0.004832 0.338488
vt 0.331902 0.670684
vt 0.004832 0.670684
vt 0.328538 1.001832
vt 0.001647 0.667333
vt 0.328538 0.667333
vt 0.665732 0.009075
vt 0.998390 0.323905
vt 0.665732 0.323905
vt 0.337940 0.325487
vt 0.007068 0.004211
vt 0.337940 0.004211
vt 0.660842 0.328005
vt 0.333008 0.001694
vt 0.660842 0.001694
vt 0.342206 0.653209
vt 0.331902 0.338488
vt 0.001647 1.001832
vt 0.998390 0.009075
vt 0.007068 0.325487
vt 0.333008 0.328005
vn -1.0000 0.0000 0.0000
vn 0.0000 0.0000 -1.0000
vn 1.0000 0.0000 0.0000
vn 0.0000 -0.0000 1.0000
vn 0.0000 -1.0000 -0.0000
vn 0.0000 1.0000 0.0000
usemtl Base
s 1
f 1/1/1 2/2/1 3/3/1
f 4/4/2 5/5/2 2/6/2
f 6/7/3 7/8/3 5/9/3
f 8/10/4 3/11/4 7/12/4
f 5/13/5 3/14/5 2/15/5
f 4/16/6 8/17/6 6/18/6
f 1/1/1 4/19/1 2/2/1
f 4/4/2 6/20/2 5/5/2
f 6/7/3 8/21/3 7/8/3
f 8/10/4 1/22/4 3/11/4
f 5/13/5 7/23/5 3/14/5
f 4/16/6 1/24/6 8/17/6
