# Blender v2.93.5 OBJ File: 'table.blend'
# www.blender.org
mtllib table.mtl
o Cube
v 0.893768 0.141793 -0.447812
v 0.996217 -0.159919 -0.550261
v 0.893768 0.141793 0.447812
v 0.996217 -0.159919 0.550261
v -0.893768 0.141793 -0.447812
v -0.996217 -0.159919 -0.550261
v -0.893768 0.141793 0.447812
v -0.996217 -0.159919 0.550261
v 0.996217 0.159919 0.550261
v -0.996217 0.159919 0.550261
v 0.996217 0.159919 -0.550261
v -0.996217 0.159919 -0.550261
v 0.893768 -0.007190 0.447812
v -0.893768 -0.007190 0.447812
v 0.893768 -0.007190 -0.447812
v -0.893768 -0.007190 -0.447812
v -0.957788 -0.007190 0.193190
v -0.957788 0.140022 0.193190
v -0.957788 -0.007190 -0.206162
v -0.957788 0.140022 -0.206162
v -0.797904 -0.006243 0.105146
v -0.797904 0.079922 0.105146
v -0.797904 -0.006243 -0.118119
v -0.797904 0.079922 -0.118119
v -0.893768 0.112809 0.105146
v -0.893768 -0.006243 0.105146
v -0.957788 -0.007190 0.504569
v -0.957788 0.140022 0.504569
v -0.797904 0.128777 0.504569
v -0.797904 -0.007190 0.504569
v -0.957788 0.140022 -0.505539
v -0.957788 -0.007190 -0.505539
v -0.797904 -0.007190 -0.505539
v -0.797904 0.128777 -0.505539
v -0.893768 -0.006243 -0.118119
v -0.893768 0.112809 -0.118119
v 0.790622 -0.007190 -0.145288
v 0.790622 0.078975 -0.145288
v 0.790622 -0.007190 0.077977
v 0.790622 0.078975 0.077977
v 0.893768 -0.007190 0.077977
v 0.893768 0.111862 -0.145288
v 0.893768 -0.007190 -0.145288
v 0.893768 0.111862 0.077977
v 0.950505 -0.008137 -0.544711
v 0.950505 0.139075 -0.544711
v 0.790622 0.127830 -0.544711
v 0.790622 -0.008137 -0.544711
v 0.950506 0.139075 0.465397
v 0.950506 -0.008137 0.465397
v 0.790622 -0.008137 0.465397
v 0.790622 0.127830 0.465397
vt 0.184127 0.028310
vt 0.416964 0.426607
vt 0.184127 0.426607
vt 0.453789 0.437129
vt -0.002111 0.007811
vt 0.450098 0.007811
vt 0.453311 0.006749
vt 0.261261 0.355765
vt 0.261261 0.006749
vt 0.302466 0.198378
vt 0.095601 0.312541
vt 0.095643 0.198302
vt 0.261323 0.002873
vt 0.018942 0.435151
vt 0.018942 0.002873
vt 0.421829 0.376872
vt 0.073750 0.027471
vt 0.421829 0.027471
vt 0.365462 0.296648
vt 0.009663 0.318871
vt 0.028800 0.299418
vt 0.007958 0.111600
vt 0.027412 0.130737
vt 0.364074 0.127967
vt 0.384916 0.315784
vt 0.383210 0.108513
vt 1.004204 0.434005
vt 0.000406 0.999334
vt 0.001429 0.435090
vt 0.410930 0.219687
vt 0.302493 0.126677
vt 0.410964 0.126717
vt 0.410896 0.312657
vt 0.302459 0.219647
vt 0.410930 0.219687
vt 0.183223 0.013278
vt 0.428683 0.433168
vt 0.183223 0.433168
vt 0.346693 0.417416
vt 0.169098 0.015841
vt 0.343846 0.014606
vt 0.675515 0.327773
vt 0.681563 0.313686
vt 0.681563 0.327773
vt 0.731523 0.343895
vt 0.738031 0.296925
vt 0.738031 0.343895
vt 0.959700 0.300281
vt 0.949613 0.300281
vt 0.949613 0.280635
vt 0.077407 0.161887
vt 0.077407 0.239696
vt 0.042610 0.374714
vt 0.146325 -0.000461
vt 0.213115 0.124603
vt 0.213115 0.291430
vt 0.750128 0.296925
vt 0.744079 0.343895
vt 0.744079 0.296925
vt 0.687611 0.313686
vt 0.681563 0.327773
vt 0.681563 0.313686
vt 0.952886 0.065750
vt 0.962974 0.119394
vt 0.952886 0.119394
vt 0.482946 0.416453
vt 0.383778 0.043528
vt 0.113160 0.340477
vt 0.113160 0.043528
vt 0.942799 0.061314
vt 0.932711 0.114957
vt 0.932711 0.061314
vt 0.147138 0.170974
vt 0.147138 0.259103
vt 0.107725 0.412029
vt 0.171945 0.418651
vt 0.038097 0.016767
vt 0.959035 0.148970
vt 0.959035 0.123769
vt 0.969122 0.123769
vt 0.211116 0.410426
vt 0.152215 0.038304
vt 0.211116 0.038304
vt 0.881336 0.296448
vt 0.867250 0.249478
vt 0.881336 0.249478
vt 0.731523 0.249955
vt 0.745610 0.296925
vt 0.731523 0.296925
vt 0.752117 0.296925
vt 0.745610 0.249955
vt 0.752117 0.249955
vt 0.669007 0.313686
vt 0.675515 0.327773
vt 0.669007 0.327773
vt 0.867250 0.300884
vt 0.877337 0.354528
vt 0.867250 0.354528
vt 0.887844 0.327295
vt 0.881336 0.313209
vt 0.887844 0.313209
vt 0.952886 0.061314
vt 0.942799 0.114957
vt 0.942799 0.061314
vt 0.744079 0.343895
vt 0.738031 0.296925
vt 0.744079 0.296925
vt 0.416964 0.028310
vt 0.001581 0.437129
vt 0.453311 0.355765
vt 0.302425 0.312617
vt 0.261323 0.435151
vt 0.073750 0.376872
vt 1.003181 0.998250
vt 0.302459 0.219647
vt 0.302425 0.312617
vt 0.428683 0.013278
vt 0.675515 0.313686
vt 0.731523 0.296925
vt 0.949613 0.255439
vt 0.959700 0.260994
vt 0.949613 0.236550
vt 0.959700 0.236550
vt 0.959700 0.275080
vt 0.336853 0.239696
vt 0.338917 0.374714
vt 0.042610 0.022686
vt 0.338917 0.022686
vt 0.336853 0.161887
vt 0.213115 0.421507
vt 0.146325 0.421507
vt 0.213115 -0.000461
vt 0.750128 0.343895
vt 0.687611 0.327773
vt 0.962974 0.061314
vt 0.480099 0.013644
vt 0.383778 0.340477
vt 0.942799 0.119394
vt 0.440995 0.259103
vt 0.443333 0.412029
vt 0.107725 0.013310
vt 0.443333 0.013310
vt 0.440995 0.170974
vt 0.040944 0.419577
vt 0.969122 0.187500
vt 0.959035 0.187500
vt 0.959035 0.163056
vt 0.152215 0.410426
vt 0.867250 0.296448
vt 0.675515 0.313686
vt 0.877337 0.296448
vt 0.881336 0.327295
vt 0.952886 0.119394
vt 0.738031 0.343895
vn 0.0000 0.0000 1.0000
vn -1.0000 -0.0000 0.0000
vn 0.0000 -1.0000 0.0000
vn 1.0000 -0.0000 0.0000
vn 0.0000 0.0000 -1.0000
vn 0.0000 0.9847 -0.1742
vn -0.1742 0.9847 0.0000
vn 0.1742 0.9847 0.0000
vn 0.0000 0.9847 0.1742
vn 0.0000 1.0000 0.0000
vn -0.3245 -0.9459 0.0000
vn 0.0702 0.9975 0.0000
vn 0.0000 -1.0000 0.0024
vn -0.0702 0.9975 0.0000
vn 0.3038 -0.9527 0.0000
vn 0.0059 -1.0000 0.0000
vn 0.0046 -1.0000 0.0024
vn 0.0046 -1.0000 -0.0024
vn -0.0059 -1.0000 0.0000
vn 0.0000 -1.0000 -0.0024
g Cube_Cube_Material
usemtl Material
s off
f 5/1/1 15/2/1 1/3/1
f 9/4/1 8/5/1 4/6/1
f 8/7/2 12/8/2 6/9/2
f 2/10/3 8/11/3 6/12/3
f 2/13/4 9/14/4 4/15/4
f 12/16/5 2/17/5 6/18/5
f 7/19/6 9/20/6 3/21/6
f 3/21/7 11/22/7 1/23/7
f 5/24/8 10/25/8 7/19/8
f 1/23/9 12/26/9 5/24/9
f 16/27/10 13/28/10 15/29/10
f 1/30/2 13/31/2 3/32/2
f 7/33/4 16/34/4 5/35/4
f 3/36/5 14/37/5 7/38/5
f 18/39/2 19/40/2 17/41/2
f 25/42/11 24/43/11 22/44/11
f 38/45/1 43/46/1 42/47/1
f 30/48/3 27/49/3 17/50/3
f 22/51/4 24/52/4 34/53/4
f 34/54/12 20/55/12 18/56/12
f 26/57/5 22/58/5 21/59/5
f 35/60/10 21/61/10 23/62/10
f 29/63/1 27/64/1 30/65/1
f 17/41/2 28/66/2 18/39/2
f 50/67/4 46/68/4 49/69/4
f 32/70/5 34/71/5 33/72/5
f 38/73/2 40/74/2 52/75/2
f 20/76/2 32/77/2 19/40/2
f 37/78/13 48/79/13 45/80/13
f 52/81/14 46/82/14 47/83/14
f 36/84/4 26/85/4 35/86/4
f 43/87/2 44/88/2 42/89/2
f 40/90/5 41/91/5 39/92/5
f 38/93/15 44/94/15 40/95/15
f 47/96/5 45/97/5 48/98/5
f 39/99/10 43/100/10 37/101/10
f 50/102/1 52/103/1 51/104/1
f 24/105/1 35/106/1 23/107/1
f 5/1/1 16/108/1 15/2/1
f 9/4/1 10/109/1 8/5/1
f 8/7/2 10/110/2 12/8/2
f 2/10/3 4/111/3 8/11/3
f 2/13/4 11/112/4 9/14/4
f 12/16/5 11/113/5 2/17/5
f 7/19/6 10/25/6 9/20/6
f 3/21/7 9/20/7 11/22/7
f 5/24/8 12/26/8 10/25/8
f 1/23/9 11/22/9 12/26/9
f 16/27/10 14/114/10 13/28/10
f 1/30/2 15/115/2 13/31/2
f 7/33/4 14/116/4 16/34/4
f 3/36/5 13/117/5 14/37/5
f 18/39/2 20/76/2 19/40/2
f 25/42/11 36/118/11 24/43/11
f 38/45/1 37/119/1 43/46/1
f 17/50/16 19/120/16 23/121/16
f 19/120/3 32/122/3 33/123/3
f 23/121/17 19/120/17 33/123/17
f 23/121/16 21/124/16 17/50/16
f 21/124/18 30/48/18 17/50/18
f 24/52/4 23/125/4 33/126/4
f 29/127/4 30/128/4 22/51/4
f 30/128/4 21/129/4 22/51/4
f 24/52/4 33/126/4 34/53/4
f 29/127/4 22/51/4 34/53/4
f 28/130/12 29/131/12 18/56/12
f 29/131/12 34/54/12 18/56/12
f 34/54/12 31/132/12 20/55/12
f 26/57/5 25/133/5 22/58/5
f 35/60/10 26/134/10 21/61/10
f 29/63/1 28/135/1 27/64/1
f 17/41/2 27/136/2 28/66/2
f 50/67/4 45/137/4 46/68/4
f 32/70/5 31/138/5 34/71/5
f 40/74/2 39/139/2 51/140/2
f 47/141/2 48/142/2 38/73/2
f 48/142/2 37/143/2 38/73/2
f 40/74/2 51/140/2 52/75/2
f 47/141/2 38/73/2 52/75/2
f 20/76/2 31/144/2 32/77/2
f 45/80/19 50/145/19 37/78/19
f 50/145/20 51/146/20 39/147/20
f 37/78/19 50/145/19 39/147/19
f 52/81/14 49/148/14 46/82/14
f 36/84/4 25/149/4 26/85/4
f 43/87/2 41/91/2 44/88/2
f 40/90/5 44/88/5 41/91/5
f 38/93/15 42/150/15 44/94/15
f 47/96/5 46/151/5 45/97/5
f 39/99/10 41/152/10 43/100/10
f 50/102/1 49/153/1 52/103/1
f 24/105/1 36/154/1 35/106/1
